<svg width="976" height="294" viewBox="0 0 976 294" fill="none" xmlns="http://www.w3.org/2000/svg">
<rect x="0.723633" width="217.51" height="258.797" rx="25.4548" fill="#5EA1F1"/>
<path d="M234.98 135.473C242.993 141.086 242.993 152.954 234.98 158.567L114.294 243.105C104.951 249.65 92.1081 242.966 92.1081 231.559L92.1081 62.4819C92.1081 51.0743 104.951 44.3903 114.294 50.9351L234.98 135.473Z" fill="#F4D154"/>
<g filter="url(#filter0_b_685:2)">
<path d="M0.723633 20.0119C0.723633 9.77668 10.2485 2.20447 20.2201 4.51231L153.548 35.37C160.762 37.0396 165.87 43.4651 165.87 50.8696V273.022C165.87 283.258 156.345 290.83 146.374 288.522L13.0456 257.664C5.83189 255.995 0.723633 249.569 0.723633 242.165V20.0119Z" fill="url(#paint0_linear_685:2)" fill-opacity="0.9"/>
</g>
<path d="M322.674 195.727C322.674 197.45 324.052 199 325.947 199H367.629C388.643 199 405.178 185.048 405.178 165.757C405.178 149.911 391.915 140.61 382.786 137.682C390.882 133.893 401.733 123.558 401.733 110.295C401.733 92.2101 385.887 78.4307 365.39 78.4307H325.947C324.052 78.4307 322.674 79.9809 322.674 81.7033V195.727ZM344.893 129.07V98.9275H363.323C372.107 98.9275 378.136 104.956 378.136 113.568C378.136 122.18 372.107 129.07 363.323 129.07H344.893ZM344.893 178.675V148.016H363.668C372.624 148.016 381.236 154.389 381.236 163.001C381.236 171.958 374.347 178.675 365.734 178.675H344.893ZM416.618 164.379C416.618 184.187 432.465 200.722 451.928 200.722C471.391 200.722 487.238 184.187 487.238 164.379C487.238 144.916 471.391 128.381 451.928 128.381C432.465 128.381 416.618 144.916 416.618 164.379ZM435.393 164.379C435.393 154.734 442.627 146.983 451.928 146.983C461.057 146.983 468.463 154.734 468.463 164.379C468.463 174.197 461.057 182.12 451.928 182.12C442.627 182.12 435.393 174.197 435.393 164.379ZM497.189 164.379C497.189 184.187 513.035 200.722 532.498 200.722C551.962 200.722 567.808 184.187 567.808 164.379C567.808 144.916 551.962 128.381 532.498 128.381C513.035 128.381 497.189 144.916 497.189 164.379ZM515.963 164.379C515.963 154.734 523.197 146.983 532.498 146.983C541.627 146.983 549.033 154.734 549.033 164.379C549.033 174.197 541.627 182.12 532.498 182.12C523.197 182.12 515.963 174.197 515.963 164.379ZM583.098 195.727C583.098 197.45 584.648 199 586.371 199H601.011C602.734 199 604.284 197.45 604.284 195.727V166.619L631.498 197.622C632.015 198.311 633.393 199 634.426 199H653.028C655.957 199 656.99 196.072 655.268 194.177L624.609 161.279L650.273 135.098C651.995 133.204 650.962 130.103 648.033 130.103H632.359C630.465 130.103 629.259 131.137 628.053 132.17L604.284 156.284V81.7033C604.284 79.9809 602.734 78.4307 601.011 78.4307H586.371C584.648 78.4307 583.098 79.9809 583.098 81.7033V195.727ZM682.171 195.727C682.171 197.45 683.721 199 685.444 199H701.462C703.184 199 704.735 197.45 704.735 195.727V99.0997H731.088C732.982 99.0997 734.36 97.5496 734.36 95.8271V81.7033C734.36 79.9809 732.982 78.4307 731.088 78.4307H655.818C653.923 78.4307 652.545 79.9809 652.545 81.7033V95.8271C652.545 97.5496 653.923 99.0997 655.818 99.0997H682.171V195.727ZM735.127 166.791C735.127 184.359 742.878 200.722 764.236 200.722C777.843 200.722 784.216 193.488 787.317 190.732L789.383 196.416C789.9 197.794 790.934 199 792.656 199H799.029C800.751 199 802.302 197.45 802.302 195.727V133.376C802.302 131.481 800.751 130.103 799.029 130.103H785.939C783.183 130.103 782.149 130.792 782.149 133.376V169.202C781.116 175.403 775.604 182.12 768.37 182.12C760.447 182.12 755.796 176.436 755.796 167.307V133.376C755.796 131.481 754.246 130.103 752.524 130.103H738.4C736.677 130.103 735.127 131.481 735.127 133.376V166.791ZM822.958 195.727C822.958 197.45 824.509 199 826.231 199H832.949C834.499 199 835.704 197.622 836.221 195.727L837.944 190.388C837.944 190.388 846.039 200.722 860.507 200.722C879.282 200.722 893.578 184.359 893.578 164.552C893.578 144.399 879.971 128.381 859.474 128.381C852.584 128.381 847.245 130.276 844.144 131.481V81.7033C844.144 79.9809 842.594 78.4307 840.872 78.4307H826.231C824.509 78.4307 822.958 79.9809 822.958 81.7033V195.727ZM843.455 170.925V150.945C843.455 150.945 848.278 146.983 856.89 146.983C866.536 146.983 873.598 154.906 873.598 164.552C873.598 174.197 867.052 182.12 857.924 182.12C848.795 182.12 844.661 175.058 843.455 170.925ZM903.912 164.552C903.912 184.359 918.553 200.722 939.222 200.722C950.417 200.722 959.202 196.589 964.886 191.249C966.608 189.871 966.264 187.977 965.058 186.771L957.996 178.675C956.79 177.298 955.24 177.642 953.518 178.675C950.417 180.915 945.422 182.982 940.083 182.982C930.093 182.982 924.064 175.058 923.548 167.996H967.642C969.192 167.996 970.742 166.791 970.914 165.068C971.086 163.863 971.259 161.624 971.259 160.418C971.259 141.816 956.79 128.381 939.049 128.381C918.553 128.381 903.912 145.088 903.912 164.552ZM925.098 155.94C925.959 149.394 931.643 144.227 938.533 144.227C945.078 144.227 950.59 149.567 951.106 155.94H925.098Z" fill="white"/>
<defs>
<filter id="filter0_b_685:2" x="-31.0949" y="-27.7228" width="228.784" height="348.48" filterUnits="userSpaceOnUse" color-interpolation-filters="sRGB">
<feFlood flood-opacity="0" result="BackgroundImageFix"/>
<feGaussianBlur in="BackgroundImage" stdDeviation="15.9093"/>
<feComposite in2="SourceAlpha" operator="in" result="effect1_backgroundBlur_685:2"/>
<feBlend mode="normal" in="SourceGraphic" in2="effect1_backgroundBlur_685:2" result="shape"/>
</filter>
<linearGradient id="paint0_linear_685:2" x1="12.6332" y1="3.93124e-07" x2="175.809" y2="300.789" gradientUnits="userSpaceOnUse">
<stop stop-color="white"/>
<stop offset="1" stop-color="white" stop-opacity="0"/>
</linearGradient>
</defs>
</svg>
