<svg width="669" height="591" viewBox="0 0 669 591" fill="none" xmlns="http://www.w3.org/2000/svg">
<rect x="207.724" width="217.51" height="258.797" rx="25.4548" fill="#5EA1F1"/>
<path d="M441.98 135.473C449.993 141.086 449.993 152.954 441.98 158.567L321.294 243.105C311.951 249.65 299.108 242.966 299.108 231.559L299.108 62.4819C299.108 51.0743 311.951 44.3903 321.294 50.9351L441.98 135.473Z" fill="#F4D154"/>
<g filter="url(#filter0_b_656:33)">
<path d="M207.724 20.0119C207.724 9.77668 217.249 2.20447 227.22 4.51231L360.548 35.37C367.762 37.0396 372.87 43.4651 372.87 50.8696V273.022C372.87 283.258 363.345 290.83 353.374 288.522L220.046 257.664C212.832 255.995 207.724 249.569 207.724 242.165V20.0119Z" fill="url(#paint0_linear_656:33)" fill-opacity="0.9"/>
</g>
<path d="M15.674 521.257C15.674 522.979 17.0519 524.53 18.9466 524.53H60.6291C81.6426 524.53 98.1779 510.578 98.1779 491.287C98.1779 475.441 84.9152 466.14 75.7864 463.211C83.8818 459.422 94.733 449.088 94.733 435.825C94.733 417.74 78.8868 403.96 58.39 403.96H18.9466C17.0519 403.96 15.674 405.51 15.674 407.233V521.257ZM37.8932 454.599V424.457H56.3231C65.1074 424.457 71.1359 430.485 71.1359 439.098C71.1359 447.71 65.1074 454.599 56.3231 454.599H37.8932ZM37.8932 504.205V473.546H56.6676C65.6241 473.546 74.2362 479.919 74.2362 488.531C74.2362 497.488 67.3466 504.205 58.7345 504.205H37.8932ZM109.618 489.909C109.618 509.717 125.465 526.252 144.928 526.252C164.391 526.252 180.238 509.717 180.238 489.909C180.238 470.446 164.391 453.91 144.928 453.91C125.465 453.91 109.618 470.446 109.618 489.909ZM128.393 489.909C128.393 480.263 135.627 472.513 144.928 472.513C154.057 472.513 161.463 480.263 161.463 489.909C161.463 499.727 154.057 507.65 144.928 507.65C135.627 507.65 128.393 499.727 128.393 489.909ZM190.189 489.909C190.189 509.717 206.035 526.252 225.498 526.252C244.962 526.252 260.808 509.717 260.808 489.909C260.808 470.446 244.962 453.91 225.498 453.91C206.035 453.91 190.189 470.446 190.189 489.909ZM208.963 489.909C208.963 480.263 216.197 472.513 225.498 472.513C234.627 472.513 242.033 480.263 242.033 489.909C242.033 499.727 234.627 507.65 225.498 507.65C216.197 507.65 208.963 499.727 208.963 489.909ZM276.098 521.257C276.098 522.979 277.648 524.53 279.371 524.53H294.011C295.734 524.53 297.284 522.979 297.284 521.257V492.148L324.498 523.152C325.015 523.841 326.393 524.53 327.426 524.53H346.028C348.957 524.53 349.99 521.601 348.268 519.707L317.609 486.809L343.273 460.628C344.995 458.733 343.962 455.633 341.033 455.633H325.359C323.465 455.633 322.259 456.666 321.053 457.7L297.284 481.814V407.233C297.284 405.51 295.734 403.96 294.011 403.96H279.371C277.648 403.96 276.098 405.51 276.098 407.233V521.257ZM375.171 521.257C375.171 522.979 376.721 524.53 378.444 524.53H394.462C396.184 524.53 397.735 522.979 397.735 521.257V424.629H424.088C425.982 424.629 427.36 423.079 427.36 421.357V407.233C427.36 405.51 425.982 403.96 424.088 403.96H348.818C346.923 403.96 345.545 405.51 345.545 407.233V421.357C345.545 423.079 346.923 424.629 348.818 424.629H375.171V521.257ZM428.127 492.32C428.127 509.889 435.878 526.252 457.236 526.252C470.843 526.252 477.216 519.018 480.317 516.262L482.383 521.946C482.9 523.324 483.934 524.53 485.656 524.53H492.029C493.751 524.53 495.302 522.979 495.302 521.257V458.905C495.302 457.011 493.751 455.633 492.029 455.633H478.939C476.183 455.633 475.149 456.322 475.149 458.905V494.732C474.116 500.932 468.604 507.65 461.37 507.65C453.447 507.65 448.796 501.966 448.796 492.837V458.905C448.796 457.011 447.246 455.633 445.524 455.633H431.4C429.677 455.633 428.127 457.011 428.127 458.905V492.32ZM515.958 521.257C515.958 522.979 517.509 524.53 519.231 524.53H525.949C527.499 524.53 528.704 523.152 529.221 521.257L530.944 515.917C530.944 515.917 539.039 526.252 553.507 526.252C572.282 526.252 586.578 509.889 586.578 490.081C586.578 469.929 572.971 453.91 552.474 453.91C545.584 453.91 540.245 455.805 537.144 457.011V407.233C537.144 405.51 535.594 403.96 533.872 403.96H519.231C517.509 403.96 515.958 405.51 515.958 407.233V521.257ZM536.455 496.454V476.474C536.455 476.474 541.278 472.513 549.89 472.513C559.536 472.513 566.598 480.436 566.598 490.081C566.598 499.727 560.052 507.65 550.924 507.65C541.795 507.65 537.661 500.588 536.455 496.454ZM596.912 490.081C596.912 509.889 611.553 526.252 632.222 526.252C643.417 526.252 652.202 522.118 657.886 516.779C659.608 515.401 659.264 513.506 658.058 512.3L650.996 504.205C649.79 502.827 648.24 503.172 646.518 504.205C643.417 506.444 638.422 508.511 633.083 508.511C623.093 508.511 617.064 500.588 616.548 493.526H660.642C662.192 493.526 663.742 492.32 663.914 490.598C664.086 489.392 664.259 487.153 664.259 485.947C664.259 467.345 649.79 453.91 632.049 453.91C611.553 453.91 596.912 470.618 596.912 490.081ZM618.098 481.469C618.959 474.924 624.643 469.757 631.533 469.757C638.078 469.757 643.59 475.096 644.106 481.469H618.098Z" fill="white"/>
<defs>
<filter id="filter0_b_656:33" x="175.905" y="-27.7228" width="228.784" height="348.48" filterUnits="userSpaceOnUse" color-interpolation-filters="sRGB">
<feFlood flood-opacity="0" result="BackgroundImageFix"/>
<feGaussianBlur in="BackgroundImage" stdDeviation="15.9093"/>
<feComposite in2="SourceAlpha" operator="in" result="effect1_backgroundBlur_656:33"/>
<feBlend mode="normal" in="SourceGraphic" in2="effect1_backgroundBlur_656:33" result="shape"/>
</filter>
<linearGradient id="paint0_linear_656:33" x1="219.633" y1="3.93124e-07" x2="382.809" y2="300.789" gradientUnits="userSpaceOnUse">
<stop stop-color="white"/>
<stop offset="1" stop-color="white" stop-opacity="0"/>
</linearGradient>
</defs>
</svg>
